<svg xmlns="http://www.w3.org/2000/svg" xmlns:xlink="http://www.w3.org/1999/xlink" version="1.1" width="256" height="256" viewBox="0 0 256 256" xml:space="preserve">
<desc>Created with Fabric.js 1.7.22</desc>
<defs>
</defs>
<g transform="translate(128 128) scale(0.72 0.72)" style="">
	<g style="stroke: none; stroke-width: 0; stroke-dasharray: none; stroke-linecap: butt; stroke-linejoin: miter; stroke-miterlimit: 10; fill: none; fill-rule: nonzero; opacity: 1;" transform="translate(-175.05 -175.05000000000004) scale(3.89 3.89)" >
	<path d="M 56.136 21.873 l 6.056 -20.549 c -11.067 -5.429 -21.654 8.099 -34.384 0 l 6.055 20.549" style="stroke: none; stroke-width: 1; stroke-dasharray: none; stroke-linecap: butt; stroke-linejoin: miter; stroke-miterlimit: 10; fill: rgb(0,0,0); fill-rule: nonzero; opacity: 1;" transform=" matrix(1 0 0 1 0 0) " stroke-linecap="round" />
	<path d="M 58.893 27.505 l -27.786 0 c -12.4 9.323 -21.074 29.393 -21.074 43.767 c 0 12.586 6.653 17.104 16.631 18.725 h 36.672 c 9.978 -1.622 16.631 -6.139 16.631 -18.725 C 79.967 56.898 71.292 36.828 58.893 27.505 z M 45 78.566 c -9.703 0 -17.568 -7.865 -17.568 -17.568 c 0 -9.703 7.865 -17.568 17.568 -17.568 s 17.568 7.865 17.568 17.568 C 62.568 70.7 54.702 78.566 45 78.566 z" style="stroke: none; stroke-width: 1; stroke-dasharray: none; stroke-linecap: butt; stroke-linejoin: miter; stroke-miterlimit: 10; fill: rgb(0,0,0); fill-rule: nonzero; opacity: 1;" transform=" matrix(1 0 0 1 0 0) " stroke-linecap="round" />
	<path d="M 57.5 27.855 h -25 c -1.645 0 -2.991 -1.346 -2.991 -2.991 v 0 c 0 -1.645 1.346 -2.991 2.991 -2.991 h 25 c 1.645 0 2.991 1.346 2.991 2.991 v 0 C 60.49 26.509 59.144 27.855 57.5 27.855 z" style="stroke: none; stroke-width: 1; stroke-dasharray: none; stroke-linecap: butt; stroke-linejoin: miter; stroke-miterlimit: 10; fill: rgb(0,0,0); fill-rule: nonzero; opacity: 1;" transform=" matrix(1 0 0 1 0 0) " stroke-linecap="round" />
	<path d="M 39.586 59.694 c -2.266 0 -4.109 -1.844 -4.109 -4.109 c 0 -2.266 1.843 -4.11 4.109 -4.11 c 2.266 0 4.109 1.844 4.109 4.11 C 43.695 57.85 41.852 59.694 39.586 59.694 z M 39.586 53.52 c -1.138 0 -2.063 0.926 -2.063 2.064 c 0 1.138 0.926 2.063 2.063 2.063 c 1.138 0 2.064 -0.926 2.064 -2.063 C 41.65 54.446 40.724 53.52 39.586 53.52 z" style="stroke: none; stroke-width: 1; stroke-dasharray: none; stroke-linecap: butt; stroke-linejoin: miter; stroke-miterlimit: 10; fill: rgb(0,0,0); fill-rule: nonzero; opacity: 1;" transform=" matrix(1 0 0 1 0 0) " stroke-linecap="round" />
	<path d="M 50.413 70.52 c -2.265 0 -4.109 -1.844 -4.109 -4.109 s 1.844 -4.109 4.109 -4.109 c 2.266 0 4.11 1.844 4.11 4.109 S 52.679 70.52 50.413 70.52 z M 50.413 64.348 c -1.138 0 -2.063 0.926 -2.063 2.063 c 0 1.138 0.926 2.063 2.063 2.063 c 1.139 0 2.064 -0.926 2.064 -2.063 C 52.477 65.274 51.552 64.348 50.413 64.348 z" style="stroke: none; stroke-width: 1; stroke-dasharray: none; stroke-linecap: butt; stroke-linejoin: miter; stroke-miterlimit: 10; fill: rgb(0,0,0); fill-rule: nonzero; opacity: 1;" transform=" matrix(1 0 0 1 0 0) " stroke-linecap="round" />
	<path d="M 36.5 70.52 c -0.262 0 -0.523 -0.1 -0.723 -0.3 c -0.4 -0.4 -0.4 -1.047 0 -1.446 l 17 -17 c 0.4 -0.4 1.047 -0.4 1.446 0 s 0.4 1.047 0 1.446 l -17 17 C 37.023 70.42 36.762 70.52 36.5 70.52 z" style="stroke: none; stroke-width: 1; stroke-dasharray: none; stroke-linecap: butt; stroke-linejoin: miter; stroke-miterlimit: 10; fill: rgb(0,0,0); fill-rule: nonzero; opacity: 1;" transform=" matrix(1 0 0 1 0 0) " stroke-linecap="round" />
</g>
</g>
</svg>